# xmcd CD database file generated by OrangeCD 5.1
#
# Track frame offsets:
#	150
#	21542
#	40151
#	64191
#	76754
#	93550
#	116312
#	130864
#	144411
#	154601
#	173868
#	191480
#	209687
#	235689
#	251721
#	264261
#	276740
#
# Disc length: 4075 seconds
#
# Revision: 0
# Processed by: cddbd v1.5PL3 Copyright (c) Steve Scherf et al.
# Submitted via: OrangeCD 5.1
#
DISCID=f10fe911
DTITLE=Creedence Clearwater Revival - All Great CCR Classics
DYEAR=1998
DGENRE=Country
TTITLE0=Suzie Q (part 2)
TTITLE1=Walk On The Water
TTITLE2=Born On The Bayou
TTITLE3=Good Golly Miss Molly
TTITLE4=Tombestone Shadow
TTITLE5=Wrote A Song For Everyone
TTITLE6=Night Time Is Right Time
TTITLE7=It Came Out Of The Sky
TTITLE8=Don't Look Now
TTITLE9=The Mignight Special
TTITLE10=Hideaway
TTITLE11=It's Just A Thought
TTITLE12=Born To Move
TTITLE13=Lookin' For Areason
TTITLE14=Commotion
TTITLE15=Up Around The Band
TTITLE16=Pagan Baby
EXTD=
EXTT0=
EXTT1=
EXTT2=
EXTT3=
EXTT4=
EXTT5=
EXTT6=
EXTT7=
EXTT8=
EXTT9=
EXTT10=
EXTT11=
EXTT12=
EXTT13=
EXTT14=
EXTT15=
EXTT16=
PLAYORDER=
